<svg xmlns="http://www.w3.org/2000/svg" width="256" height="256" viewBox="-341.4 302.7 256 256" enable-background="new -341.4 302.7 256 256"><g fill="#512200"><path d="M-125.8 411c2.9 10.9 4.4 22.6 4.4 34.7 0 1.4 0 2.8-.1 4.2l14.2 5.5 11.8-9.7 9 10.6-17.7 14.6-18.4-7.4c-2.1 16.3-7 31.3-14.2 44.5l2.5-3.4 13.8 7.9 13.1-7.9 7.3 11.8-19.6 11.9-21.6-12.6c-16.9 26.3-43.1 43.2-72.6 43.2-29.4 0-55.5-16.8-72.4-43l-21.3 12.5-19.6-11.9 7.3-11.8 13.1 7.9 13.8-7.9 1 1.3c-6.5-12.6-11-26.9-13-42.2l-17.8 7.2-17.7-14.6 9-10.6 11.8 9.7 13.6-5.3-.1-4.4c0-12.1 1.6-23.8 4.5-34.7l-23-.8-10-20.5 12.6-6 6.7 13.7 15.9.8.3 4.6c9.5-28.3 28.2-50.8 51.5-62.1.4-8.7 7.6-15.6 16.5-15.6h38.6c9.2 0 16.6 7.4 16.6 16.4l-.1 1.2c21.9 12 39.3 34.2 48.2 61.7l.4-6.2 15.9-.8 6.7-13.7 12.6 6-10 20.5-23.5.7zM-167 310.4l-1.8 4.9-2.8 1.2-5.9 1.6-4.9 3-7 3.8v-3.8l7.9-5.5 5.7-1.8 5-3.4 2.9-5.7 5.6-2-1.6 5.4zM-246.1 318.1l-5.9-1.6-2.8-1.2-1.8-4.9-3.1-2.3-1.5-5.4 5.6 2 2.9 5.7 5 3.4 5.7 1.8 7.8 5.5v3.8l-6.9-3.8z"/></g></svg>