<?xml version="1.0" encoding="utf-8"?>
<!-- Generator: Adobe Illustrator 18.1.1, SVG Export Plug-In . SVG Version: 6.00 Build 0)  -->
<!DOCTYPE svg PUBLIC "-//W3C//DTD SVG 1.1//EN" "http://www.w3.org/Graphics/SVG/1.1/DTD/svg11.dtd">
<svg version="1.1" id="Layer_1" xmlns="http://www.w3.org/2000/svg" xmlns:xlink="http://www.w3.org/1999/xlink" x="0px" y="0px"
	 width="256px" height="256px" viewBox="-341.4 302.7 256 256" enable-background="new -341.4 302.7 256 256" xml:space="preserve">
<g>
	<path fill="#512200" d="M-125.8,411c2.9,10.9,4.4,22.6,4.4,34.7c0,1.4,0,2.8-0.1,4.2l14.2,5.5l11.8-9.7l9,10.6l-17.7,14.6
		l-18.4-7.4c-2.1,16.3-7,31.3-14.2,44.5l2.5-3.4l13.8,7.9l13.1-7.9l7.3,11.8l-19.6,11.9l-21.6-12.6c-16.9,26.3-43.1,43.2-72.6,43.2
		c-29.4,0-55.5-16.8-72.4-43l-21.3,12.5l-19.6-11.9l7.3-11.8l13.1,7.9l13.8-7.9l1,1.3c-6.5-12.6-11-26.9-13-42.2l-17.8,7.2
		l-17.7-14.6l9-10.6l11.8,9.7l13.6-5.3c0-1.5-0.1-2.9-0.1-4.4c0-12.1,1.6-23.8,4.5-34.7l-23-0.8l-10-20.5l12.6-6l6.7,13.7l15.9,0.8
		l0.3,4.6c9.5-28.3,28.2-50.8,51.5-62.1c0.4-8.7,7.6-15.6,16.5-15.6h38.6c9.2,0,16.6,7.4,16.6,16.4c0,0.4-0.1,0.8-0.1,1.2
		c21.9,12,39.3,34.2,48.2,61.7l0.4-6.2l15.9-0.8l6.7-13.7l12.6,6l-10,20.5L-125.8,411z"/>
	<polygon fill="#512200" points="-167,310.4 -168.8,315.3 -171.6,316.5 -177.5,318.1 -182.4,321.1 -189.4,324.9 -189.4,321.1 
		-181.5,315.6 -175.8,313.8 -170.8,310.4 -167.9,304.7 -162.3,302.7 -163.9,308.1 	"/>
	<polygon fill="#512200" points="-246.1,318.1 -252,316.5 -254.8,315.3 -256.6,310.4 -259.7,308.1 -261.2,302.7 -255.6,304.7 
		-252.7,310.4 -247.7,313.8 -242,315.6 -234.2,321.1 -234.2,324.9 -241.1,321.1 	"/>
</g>
</svg>
